<?xml version="1.0" encoding="UTF-8"?>
<svg id="Layer_2" xmlns="http://www.w3.org/2000/svg" xmlns:xlink="http://www.w3.org/1999/xlink" viewBox="0 0 997.6 392.59">
  <defs>
    <style>
      .cls-1 {
        fill: #fff;
      }

      .cls-2 {
        fill: url(#Degradado_sin_nombre_3-3);
      }

      .cls-3 {
        fill: #3fc977;
      }

      .cls-4 {
        fill: url(#Degradado_sin_nombre_3-5);
      }

      .cls-5 {
        fill: url(#Degradado_sin_nombre_3-2);
      }

      .cls-6 {
        fill: url(#Degradado_sin_nombre_3-9);
      }

      .cls-7 {
        fill: url(#Degradado_sin_nombre_3-6);
      }

      .cls-8 {
        fill: url(#Degradado_sin_nombre_3);
      }

      .cls-9 {
        fill: url(#Degradado_sin_nombre_3-7);
      }

      .cls-10 {
        fill: url(#Degradado_sin_nombre_3-10);
      }

      .cls-11 {
        fill: url(#Degradado_sin_nombre_3-4);
      }

      .cls-12 {
        fill: url(#Degradado_sin_nombre_3-8);
      }
    </style>
    <linearGradient id="Degradado_sin_nombre_3" data-name="Degradado sin nombre 3" x1="-242.84" y1="-355.89" x2="174.56" y2="-355.89" gradientTransform="translate(212.41 526.84) rotate(-.26) scale(.88 .93) skewX(-.54)" gradientUnits="userSpaceOnUse">
      <stop offset="0" stop-color="#fff3a5"/>
      <stop offset="1" stop-color="#3fc977"/>
    </linearGradient>
    <linearGradient id="Degradado_sin_nombre_3-2" data-name="Degradado sin nombre 3" x1="-231.67" y1="-357.77" x2="162.52" y2="-357.77" xlink:href="#Degradado_sin_nombre_3"/>
    <linearGradient id="Degradado_sin_nombre_3-3" data-name="Degradado sin nombre 3" x1="-221.93" y1="-358.97" x2="149.1" y2="-358.97" xlink:href="#Degradado_sin_nombre_3"/>
    <linearGradient id="Degradado_sin_nombre_3-4" data-name="Degradado sin nombre 3" x1="-212.34" y1="-360.15" x2="135.82" y2="-360.15" xlink:href="#Degradado_sin_nombre_3"/>
    <linearGradient id="Degradado_sin_nombre_3-5" data-name="Degradado sin nombre 3" x1="-203.06" y1="-361.35" x2="122.82" y2="-361.35" xlink:href="#Degradado_sin_nombre_3"/>
    <linearGradient id="Degradado_sin_nombre_3-6" data-name="Degradado sin nombre 3" x1="-194.04" y1="-361.96" x2="110.52" y2="-361.96" xlink:href="#Degradado_sin_nombre_3"/>
    <linearGradient id="Degradado_sin_nombre_3-7" data-name="Degradado sin nombre 3" x1="-196.6" y1="-361.64" x2="114.91" y2="-361.64" xlink:href="#Degradado_sin_nombre_3"/>
    <linearGradient id="Degradado_sin_nombre_3-8" data-name="Degradado sin nombre 3" x1="-199.44" y1="-360.26" x2="121.14" y2="-360.26" xlink:href="#Degradado_sin_nombre_3"/>
    <linearGradient id="Degradado_sin_nombre_3-9" data-name="Degradado sin nombre 3" x1="-202.8" y1="-358.88" x2="127.89" y2="-358.88" xlink:href="#Degradado_sin_nombre_3"/>
    <linearGradient id="Degradado_sin_nombre_3-10" data-name="Degradado sin nombre 3" x1="-206.37" y1="-357.51" x2="134.87" y2="-357.51" xlink:href="#Degradado_sin_nombre_3"/>
  </defs>
  <g id="Layer_1-2" data-name="Layer_1">
    <g>
      <path class="cls-8" d="M225.31,392.5c-7.42-.6-14.37-4.03-19.79-9.99l-52.98-58.57c-13.08-14.46-30.64-23.95-49.46-26.71l-76.25-11.16c-11.96-1.78-21.37-10.15-25.17-22.39-3.99-12.85-.72-26.9,8.54-36.66l38.48-40.57,14.23-15.03c16.21-17.11,27.25-39.64,31.08-63.42l3.45-21.41,9.04-56.31c2.18-13.6,11.18-24.58,23.49-28.65,11.71-3.87,23.66-.69,31.97,8.5l51.5,56.89c14.11,15.57,33.04,25.79,53.32,28.77l74.05,10.88c11.92,1.73,21.32,10.06,25.13,22.28,4.02,12.88.76,26.97-8.52,36.76l-51.91,54.73c-16.88,17.8-28.37,41.25-32.35,66.01l-12.19,75.91c-2.19,13.58-11.17,24.54-23.45,28.61-4.1,1.36-8.23,1.85-12.22,1.53ZM142.01,1.85c-3.77-.31-7.67.16-11.55,1.44-11.7,3.87-20.26,14.31-22.33,27.25l-9.04,56.32-3.45,21.41c-3.89,24.15-15.1,47.01-31.55,64.38l-14.23,15.03-38.49,40.57c-8.8,9.29-11.92,22.65-8.13,34.87,3.6,11.6,12.51,19.53,23.83,21.21l76.25,11.16c19.18,2.81,37.09,12.48,50.42,27.23l52.98,58.57c7.9,8.69,19.23,11.69,30.32,8.01,11.67-3.87,20.21-14.3,22.29-27.21l12.19-75.91c4.04-25.13,15.7-48.91,32.82-66.97l51.91-54.73c8.82-9.31,11.93-22.71,8.11-34.96-3.61-11.58-12.51-19.47-23.79-21.11l-74.05-10.88c-20.64-3.04-39.92-13.44-54.28-29.29l-51.5-56.89c-5.12-5.66-11.7-8.92-18.73-9.49Z"/>
      <path class="cls-5" d="M221.53,380.47c-6.56-.53-12.7-3.11-17.59-7.57l-33.31-34.26-18.58-13.15c-13.48-11.28-31.74-21.05-48.91-26.18l-21.92-8.51-46.33-9.26c-10.85-2.54-19.51-11.15-23.2-23.04-3.88-12.5-1.55-25.69,6.22-35.27l32.66-37.94,9.47-17.54c12.68-17,23.74-40.05,29.6-61.67l.04-.13,7.86-19.15,9.8-50.04c2.99-12.32,12.31-22.44,24.32-26.45,11.27-3.76,22.84-1.53,30.96,5.96l33.53,34.23,17.23,11.62c14.3,12.19,33.84,22.64,52.26,27.96l.1.04,19.94,8.23,46.25,9.03c10.82,2.57,19.49,11.23,23.22,23.17,3.93,12.6,1.65,25.89-6.09,35.55l-32.7,37.68-8.85,16.87c-13.26,17.59-24.75,41.5-30.73,63.96l-.06.16-7.56,17.41-9.73,50.14c-3.09,12.49-12.21,22.36-24.41,26.44-4.53,1.52-9.11,2.07-13.5,1.72ZM61.67,169.01l-9.54,17.64-32.71,38c-7.29,8.98-9.46,21.39-5.81,33.17,3.47,11.17,11.58,19.26,21.69,21.62l46.54,9.31,21.93,8.52c17.33,5.17,35.86,15.08,49.47,26.48l18.73,13.27,33.33,34.28c7.59,6.92,18.49,8.96,29.11,5.4,11.53-3.86,20.14-13.15,23.03-24.87l9.76-50.33,7.62-17.56c6.13-23,17.44-46.53,31.02-64.57l8.91-16.96,32.76-37.74c7.25-9.05,9.39-21.56,5.68-33.45-3.5-11.23-11.62-19.36-21.71-21.76l-46.41-9.06-20.06-8.28c-18.64-5.39-38.41-15.96-52.9-28.3l-17.33-11.71-33.57-34.27c-7.55-6.97-18.39-9.04-28.98-5.5-11.34,3.78-20.13,13.31-22.94,24.87l-9.83,50.2-7.92,19.29c-5.92,21.83-17.09,45.1-29.89,62.28Z"/>
      <path class="cls-2" d="M215.96,369.24c-5.45-.44-10.52-2.21-14.8-5.27l-.12-.1-30.4-28.52-20.37-7.72c-13.06-7.58-32.05-17.64-48.38-25.63l-.15-.09-19.45-13.37-40.62-10.89c-9.71-3.32-17.61-12.17-21.2-23.69-3.72-11.94-2.27-24.58,3.87-33.83l26.82-35.28,4.63-19.9.09-.16c8.75-15.98,19.55-38.99,28.18-60.05l.15-.27,12.21-16.9,10.58-43.84c3.85-11.06,13.23-20.07,25.09-24.09,10.97-3.73,21.88-2.49,29.91,3.39l.1.09,30.74,28.36,19.15,6.36c14.08,8.56,34.23,19.24,51.34,27.21l.2.12,17.77,13.14,40.62,10.45c9.62,3.4,17.53,12.38,21.18,24.02,3.79,12.09,2.43,24.91-3.63,34.28l-.06.09-26.95,34.78-4.08,19.3-.1.17c-9.37,16.73-20.55,40.5-29.16,62.04l-.07.17-12.02,15.51-10.42,43.93c-3.94,11.04-13.4,20.05-25.3,24.11-5.23,1.78-10.44,2.46-15.35,2.06ZM202.58,361.91c7.5,5.33,17.7,6.37,28,2.86,11.18-3.81,20.06-12.22,23.75-22.5l10.49-44.28,12.15-15.67c8.61-21.52,19.76-45.23,29.14-62l4.13-19.5.18-.24,27.1-34.97c5.62-8.72,6.85-20.67,3.3-32-3.41-10.87-10.74-19.25-19.63-22.41l-40.91-10.52-18.04-13.34c-17.11-7.98-37.24-18.65-51.35-27.22l-19.27-6.37-31.06-28.66c-7.42-5.4-17.53-6.5-27.77-3.02-11.13,3.78-19.92,12.18-23.53,22.47l-10.66,44.16-12.42,17.19c-8.63,21.04-19.4,44-28.16,60.01l-4.67,20.1-27.11,35.65c-5.66,8.52-6.99,20.33-3.51,31.51,3.35,10.76,10.68,19.01,19.6,22.07l40.93,10.97,19.71,13.55c16.33,7.99,35.29,18.03,48.37,25.62l20.54,7.76,30.68,28.78Z"/>
      <path class="cls-11" d="M209.8,358.15c-4.04-.33-7.89-1.33-11.34-3.09l-.25-.16-27.5-22.81-22.06-2.25c-14.67-4.92-34.89-15.52-48.08-25.21l-.19-.17-17.08-18.2-35.04-12.55c-8.54-4.13-15.47-12.97-19.02-24.24-3.57-11.35-3.01-23.44,1.5-32.33l.08-.13,20.92-32.48-.14-22.3.09-.25c6.78-19.28,17.82-43.38,26.83-58.59l.12-.2,16.67-14.83,11.31-37.51.05-.11c4.52-9.28,13.41-17,24.39-21.2,10.98-4.2,22-4.1,30.24.26l.22.14,27.94,22.53,20.85,1.05.19.07c15.36,5.67,36.63,16.84,50.58,26.55l.26.23,15.64,18.01,34.96,11.85c8.52,4.31,15.49,13.36,19.12,24.82,3.66,11.56,3.23,23.89-1.14,32.97l-.1.18-21.24,31.88.6,21.78-.1.28c-6.18,16.82-17.13,41.98-27.66,60.27l-.13.23-16.42,13.53-11.05,37.57-.06.12c-7.85,15.67-27.42,25.67-43.94,24.32ZM199.81,352.49c16.08,8.07,42.41-2.11,51.42-19.89l11.23-38.19,16.71-13.77c10.34-18.02,21.08-42.67,27.21-59.3l-.61-22.16,21.71-32.6c4.01-8.38,4.36-19.82.94-30.61-3.38-10.68-9.8-19.09-17.62-23.08l-35.39-11.98-16.02-18.44c-13.73-9.54-34.55-20.46-49.65-26.07l-21.31-1.07-28.52-22.99c-15.95-8.33-41.94,1.7-50.74,19.6l-11.48,38.09-16.96,15.08c-8.86,15.01-19.67,38.61-26.37,57.6l.15,22.68-21.37,33.18c-4.12,8.19-4.6,19.39-1.27,29.96,3.3,10.49,9.68,18.68,17.5,22.5l35.45,12.69,17.45,18.59c12.95,9.49,32.71,19.85,47.1,24.71l22.43,2.26,28.01,23.23Z"/>
      <path class="cls-4" d="M202.42,347.33c-2.3-.19-4.5-.58-6.58-1.19l-.23-.07-24.78-17.27-23.54,3.2-.17-.02c-14.96-1.51-36.46-12.65-47.92-24.84l-.18-.24-14.75-23.03-29.41-14.19c-15.25-10.33-23.87-37.31-17.75-55.51l.1-.23,15.13-29.76-4.88-24.69.05-.31c3.01-18.95,13.99-43.58,25.55-57.29l.17-.21,21.02-12.65,12.05-31.28.11-.16c10.99-16.2,37.27-26.47,54.08-21.14l.2.06,25.31,16.85,22.65-4.15.24.03c15.69,2.16,37.64,13.56,49.98,25.95l.14.14.1.17,13.56,22.87,29.21,13.18.12.09c15.13,10.8,24.05,38.55,18.35,57.1l-.13.31-15.57,28.99,5.25,24.25-.06.34c-3.38,19.28-14.66,44.5-26.24,58.68l-.2.24-20.79,11.58-11.69,31.31-.12.18c-10.09,14.4-31.57,24.07-48.36,22.7ZM196.94,343.01c15.85,4.53,40.6-5.21,51.2-20.17l11.97-32.06,21.29-11.86c10.94-13.53,21.97-38.2,25.27-56.52l-5.38-24.83,16.1-29.97c5.21-17.29-3.05-42.99-17.07-53.1l-29.83-13.46-13.97-23.57c-11.69-11.67-33.06-22.78-47.86-24.9l-23.37,4.28-25.96-17.28c-15.65-4.82-39.97,4.73-50.3,19.78l-12.32,31.98-21.52,12.96c-10.91,13.06-21.64,37.13-24.57,55.11l4.99,25.26-15.61,30.71c-5.5,16.59,2.62,41.99,16.45,51.45l29.91,14.41,15.16,23.66c11.01,11.64,31.45,22.26,45.74,23.77l24.34-3.31,25.34,17.66Z"/>
      <path class="cls-7" d="M139.34,334.69c-14.86-1.21-32.87-11.56-41.41-24.59l-.14-.26-12.47-27.89-23.71-15.73-.11-.11c-12.37-11.85-20.58-36.68-17.91-54.22l.09-.35,9.4-27.08-9.6-27.11v-.3c-.62-19,10.51-44.71,24.3-56.13l.2-.17,25.36-10.5,12.79-25.1.19-.2c12.41-12.94,36.51-22.61,52.89-21.28.15.01.29.02.43.04l.31.03,22.62,11.14,24.48-9.32.23-.02c16.01-1.42,39.13,10.44,49.48,25.38l.11.16.08.18,11.52,27.78,23.6,14.55.15.15c12.29,12.45,20.83,38.18,18.67,56.2l-.03.24-10.07,26.36,9.88,26.74v.33c.31,19.22-11.08,45.42-24.85,57.22l-.23.2-25.15,9.64-12.34,25.12-.21.22c-12.85,12.96-37.76,22.9-54.4,21.71l-.35-.03-21.98-11.69-25.18,8.56-.17.02c-2.05.25-4.21.28-6.45.1ZM100.9,308.09c9.04,13.67,30.08,24.51,44.34,22.84l26.22-8.91,22.63,12.03c15.7.96,38.95-8.35,51.16-20.49l12.71-25.86,25.89-9.92c12.87-11.2,23.47-35.63,23.32-53.73l-10.16-27.48,10.42-27.28c1.9-16.65-6.23-41.14-17.51-52.7l-24.22-14.93-11.9-28.68c-9.58-13.67-31.4-24.92-46.05-23.75l-25.4,9.67-23.37-11.51s-.07,0-.11,0c-15.42-1.25-38.1,7.83-49.93,20.02l-13.15,25.81-26.08,10.8c-12.63,10.63-23.19,35.04-22.76,52.6l9.86,27.82-9.79,28.2c-2.37,16.13,5.41,39.69,16.73,50.63l24.31,16.13,12.84,28.72Z"/>
      <path class="cls-9" d="M135.74,339.72c-14.38-1.17-30.28-11.51-36.51-25.37l-.09-.24-10.22-32.83-18.17-17.36-.11-.15c-9.28-12.98-17.18-36.13-17.99-52.69v-.22s3.78-24.7,3.78-24.7l-14.34-29.58-.05-.24c-4.24-19.26,6.98-46,23.09-55.02l.2-.11.22-.06,29.52-8.32,13.55-18.99.27-.19c13.88-9.85,36.38-18.99,52.33-21.25l.38-.05,20,5.49,26.38-14.49.18-.06c16.4-5.07,40.69,7.21,49.03,24.79l.12.31,9.51,32.76,18.06,15.94.14.21c9.38,13.91,17.51,37.59,18.89,55.07l.02.29-4.54,23.67,14.53,29.28.06.27c4,19.38-7.42,46.52-23.5,55.83l-.22.13-29.55,7.73-13.01,19-.31.21c-14.27,9.78-37.33,19.16-53.63,21.81l-.44.07-19.24-6.15-27.03,13.97c-3.49,1.19-7.34,1.56-11.3,1.24ZM102.78,312.69c7.11,15.65,28.7,26.67,42.96,21.94l28.02-14.51,19.86,6.35c15.69-2.65,37.59-11.57,51.36-20.91l13.42-19.6,30.44-7.97c14.31-8.48,24.82-33.53,21.38-50.95l-14.92-30.08,4.7-24.52c-1.38-16.47-9.25-39.42-18.03-52.55l-18.55-16.38-9.8-33.75c-7.51-15.62-29.72-26.97-44.25-22.63l-27.36,15.04-20.7-5.69c-15.31,2.27-36.66,10.95-50.03,20.34l-13.96,19.58-30.61,8.63c-14.3,8.18-24.62,32.83-20.96,50.1l14.7,30.32-3.92,25.59c.83,15.79,8.3,37.69,17.1,50.08l18.66,17.82.16.51,10.34,33.21Z"/>
      <path class="cls-12" d="M133.95,345.72c-3.7-.3-7.5-1.27-11.26-2.92-10.5-4.6-18.58-13.48-21.59-23.75l-.04-.18-7.98-37.87-12.75-19.21c-7.27-15.98-14.26-37.1-17.97-50.93l-.07-.41-1.87-22.05-19.13-32.13-.07-.16c-3.86-9.52-3.33-21.8,1.41-32.84,4.46-10.38,11.91-18.06,20.45-21.06l.31-.08,34.05-6.25,14.35-12.94.31-.14c15.92-7.07,36.87-15.57,51.17-21.17l.35-.14,17.45-.14,28.5-19.81c7.5-3.93,17.16-3.83,26.5.28,10.64,4.68,18.88,13.61,22.04,23.89l.06.23,7.51,37.86,12.55,17.38.1.23c7.11,16.53,14.68,38.9,19.04,53.74l.08.27,1,21.06,19.24,31.92.07.18c3.78,9.54,3.19,21.88-1.57,33-4.5,10.51-12,18.32-20.56,21.43l-.35.09-33.86,5.81-13.72,12.93-.34.15c-14.92,6.4-33.99,14.18-49.32,20.44l-3.79,1.55-16.57-.64-28.83,19.42c-4.38,2.39-9.51,3.37-14.88,2.94ZM105.18,317.78c2.67,9,9.83,16.8,19.16,20.88,8.02,3.51,16.2,3.58,22.47.19l29.7-20.02,17.02.66,2.97-1.21c15.19-6.2,34.07-13.91,48.91-20.27l14.1-13.29,34.91-5.99c7.38-2.75,13.89-9.64,17.87-18.95,4.26-9.94,4.85-20.86,1.59-29.25l-19.64-32.58-1.02-21.67c-4.31-14.64-11.72-36.49-18.67-52.72l-12.84-17.78-7.69-38.73c-2.81-9.02-10.14-16.89-19.63-21.06-8.16-3.59-16.48-3.76-22.86-.47l-29.22,20.33-17.97.15c-14.15,5.54-34.64,13.86-50.34,20.82l-14.73,13.29-35.05,6.43c-7.34,2.64-13.8,9.4-17.74,18.57-4.23,9.85-4.76,20.7-1.43,29.07l19.5,32.74,1.94,22.91c4.38,16.3,11.43,36.28,17.59,49.85l12.95,19.47.09.43,8.05,38.21Z"/>
      <path class="cls-6" d="M132.85,351.99c-3.15-.26-6.35-1.04-9.46-2.38-10.62-4.54-18.44-14.45-20.39-25.86v-.09s-5.74-43.01-5.74-43.01l-7.2-20.91c-4.03-16.47-10.88-35.26-17.88-49.04l-.1-.23-7.58-19.74-24.04-34.84c-5.74-9.76-6.29-22.31-1.46-33.58,4.39-10.24,12.64-17.4,22.07-19.13l.16-.02,38.73-4.16,15.21-6.89.22-.05c16.87-3.84,36-11.9,49.92-21.02l.2-.13,14.95-5.84,30.55-25.16c7.62-5.59,17.86-6.49,27.38-2.41,10.69,4.58,18.59,14.52,20.61,25.94l.02.12,5.51,43.08,7.08,19.04c4.16,17.83,11.31,37.39,19.13,52.31l.14.32,6.53,18.32,24.06,34.71c5.7,9.74,6.22,22.31,1.39,33.62-4.41,10.33-12.69,17.57-22.14,19.36l-.19.03-38.57,3.94-14.49,6.86-.25.05c-17.76,3.91-37.09,12.06-51.71,21.78l-.24.16-13.94,4.92-30.75,24.99c-5.07,3.78-11.31,5.46-17.72,4.94ZM107.54,322.89c1.69,9.78,8.44,18.29,17.61,22.21,8.09,3.46,16.38,2.73,22.75-1.98l31.25-25.41,14.15-5c14.96-9.91,34.64-18.2,52.75-22.22l14.72-6.97,39.23-4.01c8.02-1.56,14.8-7.57,18.62-16.51,4.12-9.65,3.71-20.75-1.07-28.98l-24.28-35.01-6.69-18.78c-7.94-15.21-15.2-35.06-19.45-53.18l-7.13-19.13-5.57-43.6c-1.75-9.79-8.58-18.33-17.83-22.3-8.17-3.5-16.54-2.83-22.96,1.85l-30.96,25.51-15.19,5.93c-14.48,9.45-33.5,17.46-50.97,21.47l-15.45,7-39.35,4.23c-7.99,1.5-14.74,7.44-18.54,16.29-4.12,9.61-3.68,20.68,1.14,28.93l24.22,35.09,7.75,20.17c7.12,14.05,14.08,33.14,18.19,49.88l7.26,21.05.03.25,5.75,43.21Z"/>
      <path class="cls-10" d="M132.38,358.49c-2.79-.23-5.59-.91-8.34-2.07-10.87-4.57-18.2-15.29-19.13-27.96l-5.07-70.82c-1.22-17.13-7.54-33.86-17.77-47.12l-42.36-54.85c-7.56-9.83-9.23-22.97-4.37-34.28,4.41-10.26,13.27-16.67,23.7-17.17l59.65-2.82c17.91-.86,35.2-8.27,48.69-20.88l45.08-42.21c7.85-7.36,18.43-9.27,28.29-5.11,10.87,4.58,18.18,15.3,19.09,27.97l4.95,68.81c1.34,18.48,8.15,36.55,19.2,50.87l41.12,53.29c7.56,9.77,9.24,22.87,4.39,34.2-4.41,10.3-13.28,16.74-23.73,17.24l-58.73,2.77c-18.67.88-36.68,8.61-50.72,21.75l-44.03,41.23c-5.65,5.29-12.72,7.76-19.91,7.17ZM231.99,36.37c-5.88-.48-11.64,1.53-16.25,5.85l-45.09,42.21c-14.34,13.41-32.73,21.3-51.79,22.21l-59.65,2.82c-8.5.41-15.73,5.66-19.34,14.05-4.08,9.48-2.66,20.52,3.71,28.8l42.36,54.85c10.87,14.08,17.57,31.85,18.87,50.03l5.07,70.81c.78,10.67,6.93,19.69,16.04,23.52,8.06,3.39,16.69,1.84,23.08-4.14l44.03-41.23c14.9-13.95,34.02-22.15,53.83-23.08l58.73-2.77c8.52-.41,15.76-5.68,19.37-14.11,4.06-9.49,2.64-20.49-3.73-28.71l-41.13-53.3c-11.67-15.13-18.88-34.23-20.29-53.77l-4.95-68.81c-.76-10.67-6.89-19.68-16-23.52-2.26-.96-4.58-1.52-6.87-1.71Z"/>
    </g>
    <polygon class="cls-1" points="699.45 129.42 678.03 129.42 656.34 188.7 675.84 188.7 677.56 183.45 683.3 165.75 684.5 162.05 688.65 149.26 692.8 162.05 694.03 165.75 698.54 179.75 699.75 183.45 701.49 188.7 721.08 188.7 699.45 129.42"/>
    <polygon class="cls-1" points="913.57 128.88 892.13 128.88 870.43 188.18 889.96 188.18 891.66 182.92 897.42 165.24 898.62 161.51 902.77 148.72 906.92 161.51 908.13 165.24 912.66 179.21 913.86 182.92 915.58 188.18 935.18 188.18 913.57 128.88"/>
    <polygon class="cls-1" points="974.95 129.22 962.92 162.74 950.49 129.22 927.5 129.22 951.74 185.84 937.61 216.53 960.08 216.53 997.6 129.22 974.95 129.22"/>
    <path class="cls-1" d="M840.44,110.36v26.98c-1.7-2.74-4.04-4.91-7.03-6.49-2.97-1.56-6.36-2.36-10.15-2.36-4.71,0-9.01,1.22-12.88,3.71-3.86,2.46-6.89,5.95-9.1,10.53-2.24,4.58-3.33,9.91-3.33,16.02s1.09,11.48,3.33,16.08c2.21,4.62,5.22,8.14,9.06,10.6,3.83,2.45,8.09,3.69,12.81,3.69,3.99,0,7.48-.81,10.45-2.42,2.95-1.62,5.22-3.79,6.85-6.54v8.22h20.76v-78h-20.76ZM837.42,167.8c-2.08,2.19-4.62,3.29-7.63,3.29s-5.67-1.12-7.71-3.33c-2.05-2.21-3.05-5.22-3.05-9.02s1-6.87,3.05-9.01c2.04-2.14,4.6-3.21,7.71-3.21s5.55,1.1,7.63,3.26c2.08,2.19,3.1,5.18,3.1,8.97s-1.02,6.9-3.1,9.06Z"/>
    <path class="cls-1" d="M783.93,135.49c-4.02-4.53-9.42-6.78-16.25-6.78-3.99,0-7.54.83-10.64,2.48-3.1,1.65-5.56,3.82-7.39,6.47v-8.44h-20.67v59.14h20.67v-31.74c0-3.37.89-6,2.63-7.95,1.76-1.94,4.2-2.9,7.28-2.9s5.31.96,7.07,2.9c1.76,1.94,2.63,4.58,2.63,7.95v31.74h20.67v-34.46c0-7.74-2.01-13.88-6-18.41Z"/>
    <path class="cls-1" d="M642.03,135.45c-4.24-4.51-10.09-6.74-17.54-6.74-4.15,0-7.95,1-11.38,2.99-3.46,2.01-6.23,4.62-8.35,7.86-1.96-3.44-4.64-6.12-8.06-8.01-3.41-1.9-7.3-2.83-11.65-2.83-3.79,0-7.14.76-10.07,2.25-2.92,1.52-5.29,3.53-7.12,6.07v-7.81h-20.67v59.14h20.67v-31.74c0-3.15.87-5.6,2.63-7.37,1.76-1.76,4.17-2.63,7.28-2.63s5.4.87,7.12,2.63c1.72,1.76,2.59,4.22,2.59,7.37v31.74h20.67v-31.74c0-3.15.87-5.6,2.63-7.37,1.74-1.76,4.13-2.63,7.16-2.63s5.4.87,7.16,2.63c1.76,1.76,2.63,4.22,2.63,7.37v31.74h20.67v-34.46c0-7.81-2.12-13.95-6.38-18.46Z"/>
    <path class="cls-1" d="M514.64,129.22v31.74c0,3.37-.89,6.03-2.66,7.97-1.74,1.92-4.13,2.9-7.16,2.9s-5.31-.98-7.12-2.9c-1.78-1.94-2.68-4.6-2.68-7.97v-31.74h-20.55v34.37c0,7.81,1.99,13.97,5.96,18.5,3.95,4.53,9.4,6.81,16.27,6.81,4.02,0,7.57-.83,10.67-2.48,3.08-1.65,5.51-3.82,7.28-6.49v8.44h20.76v-59.14h-20.76Z"/>
    <polygon class="cls-1" points="469.93 188.36 444.96 188.36 421.66 155.8 421.66 188.36 400.99 188.36 400.99 114.04 421.66 114.04 421.66 125.89 429.36 135.4 444.73 114.04 468.57 114.04 441.25 150.09 469.93 188.36"/>
    <path class="cls-3" d="M857.75,283.26v-9.42h39.58v9.42h-39.58Z"/>
    <g>
      <path class="cls-1" d="M411.63,281.35h-10.64v-61.45h10.64v61.45Z"/>
      <path class="cls-1" d="M433.28,235.69l.3,5.28c3.38-4.08,7.81-6.12,13.29-6.12,9.51,0,14.35,5.44,14.52,16.33v30.18h-10.26v-29.58c0-2.9-.63-5.04-1.88-6.44-1.25-1.39-3.3-2.09-6.14-2.09-4.14,0-7.22,1.87-9.24,5.61v32.5h-10.26v-45.66h9.66Z"/>
      <path class="cls-1" d="M484.68,224.59v11.1h8.06v7.6h-8.06v25.49c0,1.74.34,3,1.03,3.78.69.77,1.92,1.16,3.69,1.16,1.18,0,2.38-.14,3.59-.42v7.93c-2.34.65-4.59.97-6.75.97-7.88,0-11.82-4.35-11.82-13.04v-25.87h-7.51v-7.6h7.51v-11.1h10.26Z"/>
      <path class="cls-1" d="M520.68,282.19c-6.5,0-11.77-2.05-15.81-6.14-4.04-4.09-6.06-9.54-6.06-16.35v-1.27c0-4.56.88-8.63,2.64-12.22,1.76-3.59,4.23-6.38,7.41-8.38,3.18-2,6.72-3,10.64-3,6.22,0,11.02,1.98,14.41,5.95,3.39,3.97,5.09,9.58,5.09,16.84v4.14h-29.84c.31,3.77,1.57,6.75,3.78,8.95,2.21,2.19,4.99,3.29,8.33,3.29,4.7,0,8.53-1.9,11.48-5.7l5.53,5.28c-1.83,2.73-4.27,4.85-7.32,6.35-3.05,1.51-6.48,2.26-10.28,2.26ZM519.46,243.07c-2.81,0-5.08.99-6.82,2.95-1.73,1.97-2.84,4.71-3.31,8.23h19.54v-.76c-.23-3.43-1.14-6.03-2.74-7.79-1.6-1.76-3.83-2.64-6.67-2.64Z"/>
      <path class="cls-1" d="M557.86,281.35h-10.26v-64.82h10.26v64.82Z"/>
      <path class="cls-1" d="M579.93,281.35h-10.26v-64.82h10.26v64.82Z"/>
      <path class="cls-1" d="M591.12,223.83c0-1.58.5-2.88,1.5-3.92,1-1.04,2.43-1.56,4.28-1.56s3.29.52,4.31,1.56c1.01,1.04,1.52,2.35,1.52,3.92s-.51,2.84-1.52,3.86c-1.01,1.03-2.45,1.54-4.31,1.54s-3.29-.51-4.28-1.54c-1-1.03-1.5-2.31-1.5-3.86ZM602.01,281.35h-10.26v-45.66h10.26v45.66Z"/>
      <path class="cls-1" d="M611.37,258.18c0-7.09,1.67-12.75,5-16.99,3.33-4.23,7.76-6.35,13.27-6.35,5.21,0,9.3,1.81,12.28,5.44l.46-4.6h9.24v44.27c0,5.99-1.86,10.72-5.59,14.18-3.73,3.46-8.76,5.19-15.09,5.19-3.35,0-6.62-.7-9.81-2.09s-5.62-3.21-7.28-5.47l4.85-6.16c3.15,3.74,7.03,5.61,11.65,5.61,3.4,0,6.09-.92,8.06-2.76,1.97-1.84,2.95-4.55,2.95-8.12v-3.08c-2.95,3.29-6.89,4.94-11.82,4.94-5.35,0-9.71-2.12-13.1-6.37-3.39-4.25-5.08-10.13-5.08-17.64ZM621.59,259.07c0,4.59.94,8.19,2.81,10.83,1.87,2.63,4.47,3.95,7.79,3.95,4.14,0,7.2-1.77,9.2-5.32v-20.09c-1.94-3.46-4.98-5.19-9.12-5.19-3.38,0-6,1.34-7.87,4.01-1.87,2.67-2.81,6.61-2.81,11.82Z"/>
      <path class="cls-1" d="M682.28,282.19c-6.5,0-11.77-2.05-15.81-6.14-4.04-4.09-6.06-9.54-6.06-16.35v-1.27c0-4.56.88-8.63,2.64-12.22,1.76-3.59,4.23-6.38,7.41-8.38,3.18-2,6.72-3,10.64-3,6.22,0,11.02,1.98,14.41,5.95,3.39,3.97,5.09,9.58,5.09,16.84v4.14h-29.84c.31,3.77,1.57,6.75,3.78,8.95,2.21,2.19,4.99,3.29,8.33,3.29,4.7,0,8.53-1.9,11.48-5.7l5.53,5.28c-1.83,2.73-4.27,4.85-7.32,6.35-3.05,1.51-6.48,2.26-10.28,2.26ZM681.05,243.07c-2.81,0-5.08.99-6.82,2.95-1.73,1.97-2.84,4.71-3.31,8.23h19.54v-.76c-.23-3.43-1.14-6.03-2.74-7.79-1.6-1.76-3.83-2.64-6.67-2.64Z"/>
      <path class="cls-1" d="M718.06,235.69l.3,5.28c3.38-4.08,7.81-6.12,13.29-6.12,9.51,0,14.35,5.44,14.52,16.33v30.18h-10.26v-29.58c0-2.9-.63-5.04-1.88-6.44-1.25-1.39-3.3-2.09-6.14-2.09-4.14,0-7.22,1.87-9.24,5.61v32.5h-10.26v-45.66h9.66Z"/>
      <path class="cls-1" d="M775.38,274.01c2.56,0,4.68-.75,6.37-2.24,1.69-1.49,2.59-3.33,2.7-5.53h9.66c-.11,2.84-1,5.49-2.66,7.96-1.66,2.46-3.91,4.41-6.75,5.85-2.84,1.44-5.91,2.15-9.2,2.15-6.39,0-11.45-2.07-15.19-6.2-3.74-4.14-5.61-9.85-5.61-17.13v-1.06c0-6.95,1.86-12.51,5.57-16.69,3.71-4.18,8.78-6.27,15.19-6.27,5.43,0,9.86,1.58,13.27,4.75,3.42,3.16,5.21,7.32,5.38,12.47h-9.66c-.11-2.62-1.01-4.77-2.68-6.46-1.67-1.69-3.81-2.53-6.39-2.53-3.32,0-5.88,1.2-7.68,3.61-1.8,2.41-2.72,6.06-2.74,10.95v1.65c0,4.95.89,8.65,2.68,11.08,1.79,2.43,4.37,3.65,7.74,3.65Z"/>
      <path class="cls-1" d="M821.97,282.19c-6.5,0-11.77-2.05-15.81-6.14-4.04-4.09-6.06-9.54-6.06-16.35v-1.27c0-4.56.88-8.63,2.64-12.22,1.76-3.59,4.23-6.38,7.41-8.38,3.18-2,6.72-3,10.64-3,6.22,0,11.02,1.98,14.41,5.95,3.39,3.97,5.09,9.58,5.09,16.84v4.14h-29.84c.31,3.77,1.57,6.75,3.78,8.95,2.21,2.19,4.99,3.29,8.33,3.29,4.7,0,8.53-1.9,11.48-5.7l5.53,5.28c-1.83,2.73-4.27,4.85-7.32,6.35-3.05,1.51-6.48,2.26-10.28,2.26ZM820.75,243.07c-2.81,0-5.08.99-6.82,2.95-1.73,1.97-2.84,4.71-3.31,8.23h19.54v-.76c-.23-3.43-1.14-6.03-2.74-7.79-1.6-1.76-3.83-2.64-6.67-2.64Z"/>
    </g>
  </g>
</svg>